<!DOCTYPE svg PUBLIC "-//W3C//DTD SVG 20010904//EN" "http://www.w3.org/TR/2001/REC-SVG-20010904/DTD/svg10.dtd">
<svg version="1.0" xmlns="http://www.w3.org/2000/svg" width="34px" height="62px" viewBox="0 0 340 620" preserveAspectRatio="xMidYMid meet">
<g id="layer101" fill="#41636d" stroke="none">
<path d="M79 597 c-18 -12 -44 -38 -56 -56 -22 -32 -23 -43 -23 -231 0 -188 1 -199 23 -231 37 -55 81 -79 147 -79 66 0 110 24 147 79 22 32 23 43 23 231 0 188 -1 199 -23 231 -37 55 -81 79 -147 79 -43 0 -65 -6 -91 -23z m168 -27 c61 -37 68 -64 68 -260 0 -150 -3 -180 -18 -208 -53 -96 -201 -96 -254 0 -15 28 -18 58 -18 208 0 150 3 180 18 208 25 45 72 72 127 72 27 0 58 -8 77 -20z"/>
<path d="M146 495 c-9 -25 -9 -25 25 -25 24 0 30 4 27 18 -4 23 -44 28 -52 7z"/>
<path d="M150 425 c0 -8 9 -15 20 -15 11 0 20 7 20 15 0 8 -9 15 -20 15 -11 0 -20 -7 -20 -15z"/>
<path d="M140 373 c1 -35 52 -43 58 -10 3 13 -3 17 -27 17 -17 0 -31 -3 -31 -7z"/>
</g>
<g id="layer102" fill="#49b0da" stroke="none">
<path d="M150 170 c0 -63 2 -70 20 -70 18 0 20 7 20 70 0 63 -2 70 -20 70 -18 0 -20 -7 -20 -70z"/>
</g>


</svg>