<!DOCTYPE svg PUBLIC "-//W3C//DTD SVG 20010904//EN" "http://www.w3.org/TR/2001/REC-SVG-20010904/DTD/svg10.dtd">
<svg version="1.0" xmlns="http://www.w3.org/2000/svg" width="61px" height="67px" viewBox="0 0 610 670" preserveAspectRatio="xMidYMid meet">
<g id="layer101" fill="#3e606b" stroke="none">
</g>
<g id="layer102" fill="#4f6e78" stroke="none">
<path d="M0 335 l0 -335 305 0 305 0 0 335 0 335 -305 0 -305 0 0 -335z"/>
</g>
<g id="layer103" fill="#5f7b84" stroke="none">
<path d="M0 335 l0 -335 305 0 305 0 0 335 0 335 -305 0 -305 0 0 -335z m425 291 c61 -28 137 -109 153 -164 19 -62 15 -160 -9 -212 -84 -186 -331 -230 -471 -84 -53 56 -78 116 -78 193 0 35 5 82 12 103 16 55 92 136 153 164 70 33 170 33 240 0z"/>
<path d="M194 621 c-103 -47 -164 -140 -164 -252 0 -85 24 -144 83 -202 131 -131 362 -90 441 78 68 142 6 311 -138 376 -55 25 -167 25 -222 0z"/>
</g>
<g id="layer104" fill="#149cd4" stroke="none">
</g>
<g id="layer105" fill="#708a91" stroke="none">
<path d="M0 335 l0 -335 305 0 305 0 0 335 0 335 -305 0 -305 0 0 -335z m435 290 c102 -50 159 -143 159 -260 0 -261 -311 -388 -497 -202 -73 73 -102 182 -73 279 52 180 243 265 411 183z"/>
<path d="M181 609 c-102 -51 -157 -146 -149 -258 8 -113 74 -203 175 -241 68 -25 128 -25 196 0 101 38 167 128 175 241 8 112 -47 207 -149 258 -87 43 -161 43 -248 0z"/>
</g>
<g id="layer106" fill="#32a9da" stroke="none">
</g>
<g id="layer107" fill="#849aa0" stroke="none">
<path d="M0 335 l0 -335 305 0 305 0 0 335 0 335 -305 0 -305 0 0 -335z m430 295 c61 -30 106 -75 138 -135 36 -67 38 -187 4 -252 -57 -110 -150 -168 -267 -168 -117 0 -210 58 -267 168 -32 61 -31 184 1 247 40 78 105 133 191 161 44 15 152 4 200 -21z"/>
<path d="M206 620 c-100 -39 -176 -149 -176 -254 0 -111 86 -229 190 -260 67 -20 103 -20 170 0 70 21 149 98 173 168 75 221 -142 430 -357 346z"/>
</g>
<g id="layer108" fill="#97a9af" stroke="none">
<path d="M0 335 l0 -335 305 0 305 0 0 335 0 335 -305 0 -305 0 0 -335z m406 308 c67 -23 154 -110 177 -177 48 -142 -13 -294 -147 -364 -43 -22 -64 -27 -131 -27 -67 0 -88 5 -131 27 -134 70 -195 222 -147 364 22 64 110 154 173 177 60 21 145 21 206 0z"/>
<path d="M216 624 c-72 -23 -149 -103 -172 -179 -47 -164 58 -323 233 -351 94 -15 216 51 266 143 60 112 43 228 -47 318 -79 80 -171 102 -280 69z"/>
</g>
<g id="layer109" fill="#52b6df" stroke="none">
<path d="M243 631 c-148 -38 -240 -193 -199 -334 49 -169 230 -249 384 -171 201 103 196 380 -9 484 -43 23 -130 33 -176 21z"/>
</g>
<g id="layer110" fill="#a9b8bc" stroke="none">
<path d="M0 335 l0 -335 305 0 305 0 0 335 0 335 -305 0 -305 0 0 -335z m437 297 c95 -49 153 -137 161 -243 7 -97 -17 -159 -87 -230 -63 -63 -124 -89 -206 -89 -82 0 -143 26 -206 89 -64 64 -89 124 -89 210 1 127 76 232 197 277 56 21 177 13 230 -14z m-109 -605 c3 -12 -3 -17 -22 -17 -25 0 -35 18 -19 34 12 12 38 2 41 -17z"/>
<path d="M243 631 c-148 -38 -240 -193 -199 -334 49 -169 230 -249 384 -171 201 103 196 380 -9 484 -43 23 -130 33 -176 21z m100 -278 c53 -75 53 -82 -2 -26 -28 28 -51 56 -51 62 0 23 20 9 53 -36z"/>
</g>
<g id="layer111" fill="#b6c3c6" stroke="none">
<path d="M0 335 l0 -335 305 0 305 0 0 335 0 335 -305 0 -305 0 0 -335z m438 294 c70 -35 105 -71 140 -148 21 -46 24 -64 20 -130 -6 -90 -29 -142 -90 -201 -110 -105 -296 -105 -406 0 -61 59 -84 111 -90 201 -4 66 -1 84 20 130 35 77 70 113 140 148 51 26 73 31 133 31 60 0 82 -5 133 -31z m-108 -599 c0 -15 -7 -20 -25 -20 -24 0 -34 18 -18 33 15 15 43 7 43 -13z"/>
<path d="M238 626 c-103 -28 -176 -107 -198 -211 -18 -88 9 -173 77 -241 53 -53 105 -74 188 -74 83 0 135 21 190 75 130 130 95 351 -68 429 -66 31 -129 39 -189 22z m105 -273 c53 -75 53 -82 -2 -26 -28 28 -51 56 -51 62 0 23 20 9 53 -36z"/>
</g>
<g id="layer112" fill="#93d1ec" stroke="none">
<path d="M192 607 c-96 -49 -152 -136 -152 -233 0 -79 17 -128 64 -181 109 -124 293 -124 402 0 117 133 71 340 -92 416 -62 29 -164 28 -222 -2z m151 -254 c53 -75 53 -82 -2 -26 -28 28 -51 56 -51 62 0 23 20 9 53 -36z m179 -90 c-33 -63 -119 -133 -164 -133 -7 0 10 11 37 24 57 26 107 78 126 131 8 20 15 32 17 26 2 -5 -6 -27 -16 -48z"/>
</g>
<g id="layer113" fill="#cbd4d7" stroke="none">
<path d="M1 523 c1 -112 3 -137 10 -104 25 127 113 215 243 241 29 5 -2 8 -106 9 l-148 1 1 -147z"/>
<path d="M359 659 c127 -25 215 -113 241 -243 5 -29 8 2 9 107 l1 147 -147 -1 c-112 -1 -137 -3 -104 -10z"/>
<path d="M192 607 c-96 -49 -152 -136 -152 -233 0 -79 17 -128 64 -181 109 -124 293 -124 402 0 117 133 71 340 -92 416 -62 29 -164 28 -222 -2z m148 -244 c14 -21 34 -51 45 -68 l19 -30 -39 34 c-66 58 -93 101 -62 101 6 0 23 -17 37 -37z m182 -100 c-33 -63 -119 -133 -164 -133 -7 0 10 11 37 24 57 26 107 78 126 131 8 20 15 32 17 26 2 -5 -6 -27 -16 -48z"/>
<path d="M1 178 l-1 -178 146 0 c127 0 145 2 134 15 -16 19 -4 35 26 35 28 0 44 -28 23 -41 -8 -5 44 -9 134 -9 l147 0 -1 178 c-1 124 -4 164 -10 135 -19 -97 -73 -168 -161 -212 -179 -90 -389 14 -427 212 -6 29 -9 -11 -10 -135z"/>
</g>
<g id="layer114" fill="#aeddf1" stroke="none">
<path d="M200 609 c-206 -93 -215 -375 -15 -482 31 -17 57 -22 120 -22 63 0 89 5 120 22 200 107 191 389 -15 482 -60 27 -150 27 -210 0z m140 -246 c14 -21 34 -51 45 -68 l19 -30 -39 34 c-66 58 -93 101 -62 101 6 0 23 -17 37 -37z m201 -61 c-24 -89 -112 -166 -201 -176 -43 -6 -43 -5 17 14 88 29 147 88 170 172 10 35 19 55 21 46 2 -9 -2 -34 -7 -56z"/>
</g>
<g id="layer115" fill="#d9e0e2" stroke="none">
<path d="M1 533 c1 -104 3 -129 10 -100 25 107 111 194 219 223 42 12 35 13 -92 13 l-138 1 1 -137z"/>
<path d="M380 656 c108 -29 194 -116 219 -223 7 -29 9 -4 10 100 l1 137 -137 -1 c-128 0 -135 -1 -93 -13z"/>
<path d="M200 609 c-206 -93 -215 -375 -15 -482 31 -17 57 -22 120 -22 63 0 89 5 120 22 200 107 191 389 -15 482 -60 27 -150 27 -210 0z m163 -277 c26 -37 47 -71 47 -76 0 -4 -19 9 -42 30 -67 59 -98 114 -65 114 8 0 35 -30 60 -68z m178 -30 c-24 -89 -112 -166 -201 -176 -43 -6 -43 -5 17 14 88 29 147 88 170 172 10 35 19 55 21 46 2 -9 -2 -34 -7 -56z"/>
<path d="M1 168 l-1 -168 138 0 c137 0 139 0 138 23 -1 18 4 22 29 22 25 0 30 -4 29 -22 -1 -23 1 -23 138 -23 l138 0 -1 168 c0 151 -2 163 -13 122 -36 -135 -148 -220 -291 -220 -143 0 -255 85 -291 220 -11 41 -13 29 -13 -122z m93 -37 c10 -11 15 -25 11 -30 -10 -17 -45 6 -45 29 0 25 12 25 34 1z m456 -1 c0 -23 -35 -46 -45 -29 -7 11 22 49 37 49 4 0 8 -9 8 -20z"/>
</g>
<g id="layer116" fill="#d9e7ec" stroke="none">
<path d="M1 538 c0 -122 1 -130 13 -93 19 61 41 97 83 136 43 41 70 57 128 75 37 12 29 13 -92 13 l-133 1 1 -132z"/>
<path d="M385 656 c108 -34 177 -102 211 -211 12 -37 13 -29 13 93 l1 132 -132 -1 c-122 0 -130 -1 -93 -13z"/>
<path d="M200 609 c-173 -78 -214 -296 -80 -429 166 -167 450 -49 450 187 0 187 -201 319 -370 242z m163 -277 c26 -37 47 -71 47 -76 0 -4 -19 9 -42 30 -67 59 -98 114 -65 114 8 0 35 -30 60 -68z m172 -49 c-24 -62 -70 -112 -130 -139 -51 -24 -111 -32 -100 -14 3 5 17 10 31 10 76 0 194 117 194 193 0 32 14 45 18 17 2 -13 -4 -43 -13 -67z"/>
<path d="M1 163 l-1 -163 138 0 c137 0 139 0 138 23 -1 18 4 22 29 22 25 0 30 -4 29 -23 -1 -22 1 -22 138 -22 l138 0 -1 163 c0 146 -2 158 -13 122 -44 -139 -149 -217 -291 -217 -142 0 -247 78 -291 217 -11 36 -13 24 -13 -122z m91 -30 c22 -19 24 -43 4 -43 -17 0 -48 39 -40 52 8 12 15 10 36 -9z m462 9 c8 -13 -23 -52 -40 -52 -19 0 -18 19 3 42 18 20 29 23 37 10z"/>
</g>
<g id="layer117" fill="#fdfdfe" stroke="none">
<path d="M1 548 l0 -123 20 53 c27 69 102 144 171 171 l53 20 -122 0 -123 1 1 -122z"/>
<path d="M418 649 c69 -27 144 -102 171 -171 l20 -53 0 123 1 122 -122 -1 -123 0 53 -20z"/>
<path d="M231 619 c-128 -39 -215 -185 -182 -307 29 -109 102 -180 208 -202 112 -24 225 32 278 135 88 172 -22 368 -214 381 -31 2 -71 -1 -90 -7z m141 -295 c66 -90 74 -113 23 -64 -37 36 -40 36 -25 -4 17 -46 2 -28 -44 51 -41 71 -49 109 -22 100 6 -2 37 -39 68 -83z m183 14 c-25 -117 -106 -198 -222 -223 -26 -5 -33 -3 -33 9 0 10 9 16 23 16 37 0 121 45 150 80 33 38 57 93 57 126 0 15 6 24 16 24 12 0 14 -7 9 -32z"/>
<path d="M1 153 l-1 -153 139 0 c136 0 139 0 134 21 -3 12 0 25 7 29 8 5 1 10 -21 15 -49 9 -90 26 -123 49 -26 18 -29 18 -23 3 11 -28 -21 -33 -46 -8 -21 21 -21 23 -5 35 16 12 15 15 -8 50 -14 20 -32 54 -39 74 -13 34 -14 25 -14 -115z"/>
<path d="M595 272 c-3 -15 -19 -47 -35 -72 -26 -40 -27 -45 -12 -56 16 -11 15 -14 -2 -33 -24 -27 -46 -27 -46 0 0 20 0 20 -27 1 -32 -22 -74 -38 -122 -47 -22 -5 -29 -10 -21 -15 7 -4 10 -17 7 -29 -5 -21 -2 -21 134 -21 l139 0 0 150 c0 83 -2 150 -4 150 -3 0 -7 -13 -11 -28z"/>
</g>


</svg>